:SAMPLES-PER-SECOND 30
:FULLY-SPECIFIED
:DEGREES
268
root  -9.64528 38.8638 -32.16 26.4824 -82.2718 -30.3272
RightUpLeg  20.1374 -11.4769 -2.70437
RightLeg  12.8383 0.773925 4.86898
RightFoot  -17.0346 0.08954 4.09807
RightToes  -5.8209e-011 0 -3.6325e-017
Spine  3.25834 4.71999 15.7739
Spine1  8.00154 8.39552 -12.4779
HEad  50.8422 -4.44031 -177.667
LeftShoulder1  7.11266 -10.3592 -44.6816
LeftArm  -7.18333 40.5406 -25.5955
LeftForeArm  27.7582 -7.2972 -5.16561
LeftHand  -0.244104 0.0205437 5.32207
RightShoulder  5.87561 9.22134 40.0335
RightArm  7.39009 5.47812 32.4644
RightForeArm  4.80866 32.5531 6.92806
RightHand  -0.271731 -2.36274 -10.1228
LeftUpLeg  -17.5622 3.59484 -0.241515
LeftLeg  -5.65403 31.5009 -11.2692
LeftFoot  -4.06477 0.33696 -5.1404
LeftToes  1.76439e-010 -1.07097e-011 2.32476e-011
269
root  -11.6328 38.6435 -31.8544 22.664 -82.4129 -26.3763
RightUpLeg  22.5638 -16.6999 -7.2121
RightLeg  15.9321 8.54967 5.39281
RightFoot  -15.6083 0.19082 8.00612
RightToes  -5.8209e-011 0 -3.6325e-017
Spine  1.76268 5.2643 13.6368
Spine1  8.43016 8.68427 -11.6676
HEad  49.1949 -6.07629 -176.924
LeftShoulder1  6.92196 -10.0592 -44.4328
LeftArm  -7.70401 41.1022 -25.5365
LeftForeArm  26.9235 -6.54784 -4.86507
LeftHand  -0.244104 0.0205437 5.32207
RightShoulder  6.00927 9.29069 40.7827
RightArm  8.67543 4.22641 32.7672
RightForeArm  4.06687 29.6044 6.20364
RightHand  -0.335891 -1.67824 -10.3422
LeftUpLeg  -18.2335 4.42406 -2.28021
LeftLeg  -0.125392 31.6643 -8.68592
LeftFoot  -1.54654 -0.266423 3.10893
LeftToes  1.76439e-010 -1.07097e-011 2.32476e-011
270
root  -13.5873 38.4932 -31.5285 11.1411 -82.3966 -15.1791
RightUpLeg  22.9539 -20.4928 -12.3968
RightLeg  23.2399 15.7338 6.75884
RightFoot  -10.9664 -0.139521 12.825
RightToes  -5.8209e-011 0 -3.6325e-017
Spine  1.40714 5.50043 10.1667
Spine1  7.88802 8.53024 -10.6262
HEad  48.1444 -7.39752 -175.929
LeftShoulder1  6.91225 -9.94116 -44.7716
LeftArm  -7.61643 40.3117 -24.6547
LeftForeArm  26.2981 -5.77033 -4.75863
LeftHand  -0.244104 0.0205437 5.32207
RightShoulder  6.22224 9.42201 41.8803
RightArm  9.84394 2.528 33.381
RightForeArm  3.15545 25.2313 5.31211
RightHand  -0.43332 -0.81001 -10.944
LeftUpLeg  -19.846 9.68062 -7.13723
LeftLeg  8.89537 25.3941 -2.70835
LeftFoot  0.0127665 -1.19901 12.1247
LeftToes  1.76439e-010 -1.07097e-011 2.32476e-011
271
root  -15.3195 38.466 -31.1712 -3.31876 -81.3444 -1.34154
RightUpLeg  18.5242 -15.6445 -13.2275
RightLeg  34.2804 12.878 9.02
RightFoot  -0.118088 -1.57387 15.9992
RightToes  -5.8209e-011 0 -3.6325e-017
Spine  2.65699 5.19573 7.30306
Spine1  6.70486 8.1493 -10.6687
HEad  48.1288 -8.25836 -175.672
LeftShoulder1  7.12336 -10.1365 -45.5071
LeftArm  -7.23082 37.501 -23.3987
LeftForeArm  26.1799 -5.15341 -4.84475
LeftHand  -0.244104 0.0205437 5.32207
RightShoulder  6.41805 9.62392 42.5811
RightArm  7.49802 0.860903 34.7366
RightForeArm  4.85518 19.0222 5.38521
RightHand  -0.500537 -0.26482 -11.3747
LeftUpLeg  -20.5021 16.7766 -13.3776
LeftLeg  15.0211 16.1684 2.65737
LeftFoot  -0.612237 -1.59704 16.9456
LeftToes  1.76439e-010 -1.07097e-011 2.32476e-011
272
root  -16.7436 38.4354 -30.8134 -13.9378 -79.9309 8.79734
RightUpLeg  11.0034 -10.7852 -13.285
RightLeg  46.864 8.96828 9.77173
RightFoot  12.8784 -3.32796 15.9452
RightToes  -5.8209e-011 0 -3.6325e-017
Spine  4.6479 4.93152 5.90268
Spine1  5.97746 8.10954 -12.2467
HEad  48.6489 -8.69269 -176.61
LeftShoulder1  7.42833 -10.5316 -46.1459
LeftArm  -7.27805 32.9213 -22.6809
LeftForeArm  26.6054 -5.21708 -4.98603
LeftHand  -0.244104 0.0205437 5.32207
RightShoulder  6.54851 9.91141 42.5118
RightArm  -1.35472 -0.459796 36.2974
RightForeArm  13.0081 11.459 7.06286
RightHand  -0.425728 -0.754084 -10.5842
LeftUpLeg  -19.6491 18.1967 -16.3256
LeftLeg  18.7728 13.5627 5.16266
LeftFoot  -3.28666 -1.21629 17.3327
LeftToes  1.76439e-010 -1.07097e-011 2.32476e-011
273
root  -18.04 38.4299 -30.4416 -19.7726 -78.733 14.4456
RightUpLeg  2.66246 -6.7236 -13.2878
RightLeg  57.7385 4.89357 7.82818
RightFoot  19.1143 -3.47916 13.2029
RightToes  -5.8209e-011 0 -3.6325e-017
Spine  6.16417 4.88638 5.5118
Spine1  5.88994 8.2924 -14.1579
HEad  48.8131 -9.0943 -178.269
LeftShoulder1  7.61505 -10.7837 -46.4827
LeftArm  -8.34441 27.737 -22.8817
LeftForeArm  26.9433 -6.77066 -5.01565
LeftHand  -0.244104 0.0205437 5.32207
RightShoulder  6.65772 10.223 42.2197
RightArm  -5.40741 -1.57077 37.3992
RightForeArm  18.8994 5.41724 6.9065
RightHand  -0.26908 -1.90484 -8.74314
LeftUpLeg  -17.6862 18.1795 -17.1111
LeftLeg  20.8409 13.0404 5.22594
LeftFoot  -6.3262 -0.676936 16.238
LeftToes  1.76439e-010 -1.07097e-011 2.32476e-011
274
root  -19.4271 38.728 -29.9644 -18.0187 -76.6448 12.5882
RightUpLeg  -4.27963 -4.92016 -12.9236
RightLeg  64.0164 1.54641 2.94728
RightFoot  17.9948 -2.11505 8.46887
RightToes  -5.8209e-011 0 -3.6325e-017
Spine  6.61352 4.19572 6.10985
Spine1  5.69384 7.762 -14.7093
HEad  48.2849 -9.80982 -179.905
LeftShoulder1  7.64589 -10.7642 -46.7405
LeftArm  -9.86523 22.9911 -23.7206
LeftForeArm  26.1838 -10.4281 -4.81833
LeftHand  -0.244104 0.0205437 5.32207
RightShoulder  6.72524 10.3569 42.2381
RightArm  -4.25961 -2.99478 37.3658
RightForeArm  23.3806 2.70672 6.67945
RightHand  -0.191743 -2.52771 -7.42359
LeftUpLeg  -13.8568 16.5689 -16.3041
LeftLeg  19.7491 13.0895 3.79501
LeftFoot  -7.84348 -0.432149 15.629
LeftToes  1.76439e-010 -1.07097e-011 2.32476e-011
